<?xml version="1.0" standalone="no"?><!DOCTYPE svg PUBLIC "-//W3C//DTD SVG 1.1//EN" "http://www.w3.org/Graphics/SVG/1.1/DTD/svg11.dtd"><svg t="1753805314988" class="icon" viewBox="0 0 1024 1024" version="1.1" xmlns="http://www.w3.org/2000/svg" p-id="5477" xmlns:xlink="http://www.w3.org/1999/xlink" width="200" height="200"><path d="M125.8 240.8l57.4 25.4c-0.1 0.8-0.1 1.6-0.1 2.5v66.6c0 21.4 7.4 42.3 20.9 58.8 13.5 16.6 32.4 28.1 53.3 32.5 35.7 7.5 68.6 11.2 101.5 11.2 33 0 65.8-3.7 101.3-11.2 20.8-4.4 39.7-16 53-32.6 13.3-16.5 20.7-37.4 20.7-58.6v-66.7c0-0.8 0-1.6-0.1-2.5l46.3-20.5 28.6 72.7c4.6 11.8 16 19.1 28 19.1 3.7 0 7.4-0.7 11-2.1 15.4-6.1 23-23.5 17-38.9l-44.1-112.2c-3.4-16.8-15.1-31-31.5-37.3L388.6 69.6c-19.4-7.5-40.8-7.5-60.3 0L128 146.9c-19.3 7.4-32 25.6-32.5 46.2s11.4 39.3 30.3 47.7z m348 94.5c0 15.6-11 29.2-26.1 32.4-62.9 13.3-114.5 13.3-178.1 0-15.3-3.2-26.4-16.9-26.4-32.5v-42.5l81.4 36c10.8 4.8 22.3 7.2 33.9 7.2 11.6 0 23.1-2.4 33.9-7.2l81.4-36v42.6zM350 125.7c5.5-2.1 11.5-2.1 17 0l179.4 69.2-178.3 78.9c-6.1 2.7-13.1 2.7-19.2 0l-178.3-78.9L350 125.7z m534.4 424.9h-86.7v-28.7c0-46.9-38.2-85-85-85h-66.5c-33.5 0-62.5 19.5-76.4 47.7-21.1-10.2-44.4-15.6-68.5-15.6H223c-86.9 0-157.6 70.7-157.6 157.6v302.6c0 16.6 13.4 30 30 30s30-13.4 30-30V626.6c0-53.8 43.7-97.5 97.5-97.5h278.4c21.9 0 42.8 7.2 59.8 20.5v1h-86.7c-40.9 0-74.2 33.3-74.2 74.2v261.1c0 40.9 33.3 74.2 74.2 74.2h409.9c40.9 0 74.2-33.3 74.2-74.2V624.8c0.1-41-33.2-74.2-74.1-74.2z m-238.1-53.7h66.5c13.8 0 25 11.2 25 25v28.7H621.3v-28.7c0-13.8 11.2-25 25-25zM460.5 624.7c0-7.8 6.3-14.1 14.1-14.1h409.9c7.8 0 14.1 6.3 14.1 14.1V672c0 15.7-12.8 28.5-28.5 28.5h-89.4v-28.9c0-16.6-13.4-30-30-30H608.4c-16.6 0-30 13.4-30 30v28.9H489c-15.7 0-28.5-12.8-28.5-28.5v-47.3z m260.1 77v55.7h-82.2v-55.7h82.2z m163.8 198.2H474.6c-7.8 0-14.1-6.3-14.1-14.1V755.9c8.9 3 18.5 4.7 28.5 4.7h89.4v26.8c0 16.6 13.4 30 30 30h142.3c16.6 0 30-13.4 30-30v-26.8H870c10 0 19.5-1.7 28.5-4.7v129.9c0 7.8-6.3 14.1-14.1 14.1z" p-id="5478" fill="#f6ee7e"></path></svg>